<svg xmlns="http://www.w3.org/2000/svg" height="48" viewBox="0 96 960 960" width="48">
    <path fill="#72663c"
        d="M290 816h60v-90h90v-60h-90v-90h-60v90h-90v60h90v90Zm230-150h240v-40H520v40Zm0 120h160v-40H520v40ZM140 976q-24 0-42-18t-18-42V436q0-24 18-42t42-18h250V236q0-24 18-42t42.411-18h59.178Q534 176 552 194t18 42v140h250q24 0 42 18t18 42v480q0 24-18 42t-42 18H140Zm0-60h680V436H570v30q0 28-18 44t-42.411 16h-59.178Q426 526 408 510t-18-44v-30H140v480Zm310-450h60V236h-60v230Zm30 210Z" />
</svg>