<svg id="visual" viewBox="0 0 900 450" width="900" height="450" xmlns="http://www.w3.org/2000/svg"
    xmlns:xlink="http://www.w3.org/1999/xlink" version="1.1">
    <path
        d="M0 360L21.5 354.3C43 348.7 86 337.3 128.8 340.8C171.7 344.3 214.3 362.7 257.2 370.2C300 377.7 343 374.3 385.8 365C428.7 355.7 471.3 340.3 514.2 335.3C557 330.3 600 335.7 642.8 348C685.7 360.3 728.3 379.7 771.2 379.7C814 379.7 857 360.3 878.5 350.7L900 341L900 451L878.5 451C857 451 814 451 771.2 451C728.3 451 685.7 451 642.8 451C600 451 557 451 514.2 451C471.3 451 428.7 451 385.8 451C343 451 300 451 257.2 451C214.3 451 171.7 451 128.8 451C86 451 43 451 21.5 451L0 451Z"
        fill="#443D24" stroke-linecap="round" stroke-linejoin="miter"></path>
</svg>